<svg width="22" height="23" viewBox="0 0 22 23" fill="none" xmlns="http://www.w3.org/2000/svg">
<path d="M21.6472 11.8748C21.6472 10.9966 21.5759 10.3557 21.4217 9.69116H11.3936V13.6549H17.2798C17.1612 14.6399 16.5204 16.1234 15.0962 17.1202L15.0763 17.2529L18.247 19.7092L18.4666 19.7312C20.4841 17.8679 21.6472 15.1265 21.6472 11.8748Z" fill="#4285F4"/>
<path d="M11.3941 22.3179C14.2779 22.3179 16.6989 21.3685 18.4672 19.7308L15.0968 17.1199C14.1949 17.7488 12.9844 18.1879 11.3941 18.1879C8.56966 18.1879 6.17241 16.3248 5.31786 13.7495L5.19261 13.7601L1.89566 16.3117L1.85254 16.4315C3.60893 19.9206 7.21669 22.3179 11.3941 22.3179Z" fill="#34A853"/>
<path d="M5.31846 13.7497C5.09298 13.0852 4.96248 12.373 4.96248 11.6373C4.96248 10.9014 5.09298 10.1894 5.30659 9.52484L5.30062 9.3833L1.96235 6.79077L1.85313 6.84272C1.12924 8.29059 0.713867 9.91649 0.713867 11.6373C0.713867 13.3581 1.12924 14.9839 1.85313 16.4318L5.31846 13.7497Z" fill="#FBBC05"/>
<path d="M11.3941 5.0862C13.3997 5.0862 14.7526 5.95253 15.524 6.67651L18.5384 3.73332C16.6871 2.01252 14.2779 0.956299 11.3941 0.956299C7.21669 0.956299 3.60893 3.35354 1.85254 6.84259L5.306 9.52471C6.17242 6.94944 8.56966 5.0862 11.3941 5.0862Z" fill="#EB4335"/>
</svg>
