<svg width="11" height="16" viewBox="0 0 11 16" fill="none" xmlns="http://www.w3.org/2000/svg">
<path d="M1.83333 0C1.3471 0 0.880787 0.210714 0.536971 0.585786C0.193154 0.960859 0 1.46957 0 2V14C0 14.5304 0.193154 15.0391 0.536971 15.4142C0.880787 15.7893 1.3471 16 1.83333 16H10.5417C10.6632 16 10.7798 15.9473 10.8658 15.8536C10.9517 15.7598 11 15.6326 11 15.5C11 15.3674 10.9517 15.2402 10.8658 15.1464C10.7798 15.0527 10.6632 15 10.5417 15H1.83333C1.59022 15 1.35706 14.8946 1.18515 14.7071C1.01324 14.5196 0.916667 14.2652 0.916667 14H10.0833C10.3264 14 10.5596 13.8946 10.7315 13.7071C10.9034 13.5196 11 13.2652 11 13V2C11 1.46957 10.8068 0.960859 10.463 0.585786C10.1192 0.210714 9.6529 0 9.16667 0H1.83333ZM2.52083 2.5H8.47917C8.6615 2.5 8.83637 2.57902 8.9653 2.71967C9.09423 2.86032 9.16667 3.05109 9.16667 3.25C9.16667 3.44891 9.09423 3.63968 8.9653 3.78033C8.83637 3.92098 8.6615 4 8.47917 4H2.52083C2.3385 4 2.16363 3.92098 2.0347 3.78033C1.90577 3.63968 1.83333 3.44891 1.83333 3.25C1.83333 3.05109 1.90577 2.86032 2.0347 2.71967C2.16363 2.57902 2.3385 2.5 2.52083 2.5Z" fill="#444444"/>
</svg>
