<svg width="111" height="38" viewBox="0 0 111 38" fill="none" xmlns="http://www.w3.org/2000/svg">
<rect width="111" height="38" rx="19" fill="#3199F9"/>
<path d="M24.7109 12.5781C25.6953 12.5781 26.5078 12.6979 27.1484 12.9375C27.7943 13.1771 28.2734 13.5417 28.5859 14.0312C28.9036 14.5208 29.0625 15.1432 29.0625 15.8984C29.0625 16.4609 28.9583 16.9401 28.75 17.3359C28.5417 17.7318 28.2682 18.0599 27.9297 18.3203C27.5911 18.5807 27.2292 18.7891 26.8438 18.9453L30.0859 24H27.9688L25.2109 19.4219H23.375V24H21.5V12.5781H24.7109ZM24.5859 14.1406H23.375V17.875H24.6719C25.5417 17.875 26.1719 17.7135 26.5625 17.3906C26.9583 17.0677 27.1562 16.5911 27.1562 15.9609C27.1562 15.2995 26.9453 14.8307 26.5234 14.5547C26.1068 14.2786 25.4609 14.1406 24.5859 14.1406ZM34.9766 15.1875C35.7474 15.1875 36.4089 15.3464 36.9609 15.6641C37.513 15.9818 37.9375 16.4323 38.2344 17.0156C38.5312 17.599 38.6797 18.2969 38.6797 19.1094V20.0938H32.9062C32.9271 20.9323 33.151 21.5781 33.5781 22.0312C34.0104 22.4844 34.6146 22.7109 35.3906 22.7109C35.9427 22.7109 36.4375 22.6589 36.875 22.5547C37.3177 22.4453 37.7734 22.2865 38.2422 22.0781V23.5703C37.8099 23.7734 37.3698 23.9219 36.9219 24.0156C36.474 24.1094 35.9375 24.1562 35.3125 24.1562C34.4635 24.1562 33.7161 23.9922 33.0703 23.6641C32.4297 23.3307 31.9271 22.8359 31.5625 22.1797C31.2031 21.5234 31.0234 20.7083 31.0234 19.7344C31.0234 18.7656 31.1875 17.9427 31.5156 17.2656C31.8438 16.5885 32.3047 16.0729 32.8984 15.7188C33.4922 15.3646 34.1849 15.1875 34.9766 15.1875ZM34.9766 16.5703C34.3984 16.5703 33.9297 16.7578 33.5703 17.1328C33.2161 17.5078 33.0078 18.0573 32.9453 18.7812H36.8828C36.8776 18.349 36.8047 17.9661 36.6641 17.6328C36.5286 17.2995 36.3203 17.0391 36.0391 16.8516C35.763 16.6641 35.4089 16.5703 34.9766 16.5703ZM46.5625 21.5312C46.5625 22.099 46.4245 22.5781 46.1484 22.9688C45.8724 23.3594 45.4688 23.6562 44.9375 23.8594C44.4115 24.0573 43.7656 24.1562 43 24.1562C42.3958 24.1562 41.875 24.112 41.4375 24.0234C41.0052 23.9401 40.5964 23.8099 40.2109 23.6328V22.0469C40.6224 22.2396 41.0833 22.4062 41.5938 22.5469C42.1094 22.6875 42.5964 22.7578 43.0547 22.7578C43.6589 22.7578 44.0938 22.6641 44.3594 22.4766C44.625 22.2839 44.7578 22.0286 44.7578 21.7109C44.7578 21.5234 44.7031 21.3568 44.5938 21.2109C44.4896 21.0599 44.2917 20.9062 44 20.75C43.7135 20.5885 43.2917 20.3958 42.7344 20.1719C42.1875 19.9531 41.7266 19.7344 41.3516 19.5156C40.9766 19.2969 40.6927 19.0339 40.5 18.7266C40.3073 18.4141 40.2109 18.0156 40.2109 17.5312C40.2109 16.7656 40.513 16.1849 41.1172 15.7891C41.7266 15.388 42.5312 15.1875 43.5312 15.1875C44.0625 15.1875 44.5625 15.2422 45.0312 15.3516C45.5052 15.4557 45.9688 15.6094 46.4219 15.8125L45.8438 17.1953C45.4531 17.0234 45.0599 16.8828 44.6641 16.7734C44.2734 16.6589 43.875 16.6016 43.4688 16.6016C42.9948 16.6016 42.6328 16.6745 42.3828 16.8203C42.138 16.9661 42.0156 17.1745 42.0156 17.4453C42.0156 17.6484 42.0755 17.8203 42.1953 17.9609C42.3151 18.1016 42.5208 18.2422 42.8125 18.3828C43.1094 18.5234 43.5208 18.6979 44.0469 18.9062C44.5625 19.1042 45.0078 19.3125 45.3828 19.5312C45.763 19.7448 46.0547 20.0078 46.2578 20.3203C46.4609 20.6328 46.5625 21.0365 46.5625 21.5312ZM51.9922 15.1875C52.763 15.1875 53.4245 15.3464 53.9766 15.6641C54.5286 15.9818 54.9531 16.4323 55.25 17.0156C55.5469 17.599 55.6953 18.2969 55.6953 19.1094V20.0938H49.9219C49.9427 20.9323 50.1667 21.5781 50.5938 22.0312C51.026 22.4844 51.6302 22.7109 52.4062 22.7109C52.9583 22.7109 53.4531 22.6589 53.8906 22.5547C54.3333 22.4453 54.7891 22.2865 55.2578 22.0781V23.5703C54.8255 23.7734 54.3854 23.9219 53.9375 24.0156C53.4896 24.1094 52.9531 24.1562 52.3281 24.1562C51.4792 24.1562 50.7318 23.9922 50.0859 23.6641C49.4453 23.3307 48.9427 22.8359 48.5781 22.1797C48.2188 21.5234 48.0391 20.7083 48.0391 19.7344C48.0391 18.7656 48.2031 17.9427 48.5312 17.2656C48.8594 16.5885 49.3203 16.0729 49.9141 15.7188C50.5078 15.3646 51.2005 15.1875 51.9922 15.1875ZM51.9922 16.5703C51.4141 16.5703 50.9453 16.7578 50.5859 17.1328C50.2318 17.5078 50.0234 18.0573 49.9609 18.7812H53.8984C53.8932 18.349 53.8203 17.9661 53.6797 17.6328C53.5443 17.2995 53.3359 17.0391 53.0547 16.8516C52.7786 16.6641 52.4245 16.5703 51.9922 16.5703ZM60.9844 22.6719C61.224 22.6719 61.4609 22.651 61.6953 22.6094C61.9297 22.5625 62.1432 22.5078 62.3359 22.4453V23.8359C62.1328 23.9245 61.8698 24 61.5469 24.0625C61.224 24.125 60.888 24.1562 60.5391 24.1562C60.0495 24.1562 59.6094 24.0755 59.2188 23.9141C58.8281 23.7474 58.5182 23.4635 58.2891 23.0625C58.0599 22.6615 57.9453 22.1068 57.9453 21.3984V16.75H56.7656V15.9297L58.0312 15.2812L58.6328 13.4297H59.7891V15.3516H62.2656V16.75H59.7891V21.375C59.7891 21.8125 59.8984 22.138 60.1172 22.3516C60.3359 22.5651 60.625 22.6719 60.9844 22.6719Z" fill="white"/>
<path d="M84 10C81.6131 10 79.3239 10.9482 77.636 12.636C75.9482 14.3239 75 16.6131 75 19H72L76 23L80 19H77C77 15.14 80.14 12 84 12C87.86 12 91 15.14 91 19C91 22.86 87.86 26 84 26C82.1 26 80.38 25.24 79.12 24.01L77.7 25.42C79.3801 27.0734 81.6428 28 84 28C86.3869 28 88.6761 27.0518 90.364 25.364C92.0518 23.6761 93 21.3869 93 19C93 16.6131 92.0518 14.3239 90.364 12.636C88.6761 10.9482 86.3869 10 84 10ZM86 18V17C86 15.9 85.1 15 84 15C82.9 15 82 15.9 82 17V18H81V23H87V18H86ZM85 18H83V17C83 16.45 83.45 16 84 16C84.55 16 85 16.45 85 17V18Z" fill="white"/>
</svg>
