<svg xmlns="http://www.w3.org/2000/svg" viewBox="0 0 121.77 142.87"><defs><style>.cls-1{fill:#474647;}</style></defs><g id="Calque_2" data-name="Calque 2"><g id="Calque_1-2" data-name="Calque 1"><path class="cls-1" d="M60.5,27.17a34.78,34.78,0,0,0-23.2,10,34.44,34.44,0,0,0-9.56,20l-.22,51.54H61.2v13.6H0v-6.8L13.76,102q.15-23.1.31-46.19a46.86,46.86,0,0,1,5.54-17.46c8.74-15.71,24-21.31,28.55-22.77a14.12,14.12,0,0,1,1.46-8.12C52.84,1.34,59.55.14,60.4,0Q60.45,13.59,60.5,27.17Z"/><path class="cls-1" d="M61.27,27.17a34.78,34.78,0,0,1,23.2,10,34.44,34.44,0,0,1,9.56,20l.22,51.54H60.57v13.6h61.2v-6.8L108,102q-.15-23.1-.31-46.19a46.86,46.86,0,0,0-5.54-17.46C93.42,22.62,78.11,17,73.61,15.56a14.21,14.21,0,0,0-1.46-8.12C68.93,1.34,62.22.14,61.37,0Q61.31,13.59,61.27,27.17Z"/><path class="cls-1" d="M47.12,129.24H74.64a13.76,13.76,0,0,1-27.52,0Z"/><rect class="cls-1" x="60.4" width="1.02" height="27.17"/></g></g></svg>