<svg width="94" height="20" viewBox="0 0 94 20" fill="none" xmlns="http://www.w3.org/2000/svg">
<path d="M3.73047 19H0.15625V1.86719H9.97656V4.84375H3.73047V9.26172H9.54297V12.2266H3.73047V19ZM16.6211 0.765625V4.48047C16.6211 5.12891 16.5977 5.74609 16.5508 6.33203C16.5117 6.91797 16.4805 7.33203 16.457 7.57422H16.6445C16.9258 7.12109 17.2578 6.75391 17.6406 6.47266C18.0312 6.19141 18.4609 5.98438 18.9297 5.85156C19.3984 5.71875 19.9023 5.65234 20.4414 5.65234C21.3867 5.65234 22.2109 5.82031 22.9141 6.15625C23.6172 6.48438 24.1641 7.00391 24.5547 7.71484C24.9453 8.41797 25.1406 9.33203 25.1406 10.457V19H21.5664V11.3477C21.5664 10.4102 21.3945 9.70312 21.0508 9.22656C20.707 8.75 20.1758 8.51172 19.457 8.51172C18.7383 8.51172 18.1719 8.67969 17.7578 9.01562C17.3438 9.34375 17.0508 9.83203 16.8789 10.4805C16.707 11.1211 16.6211 11.9062 16.6211 12.8359V19H13.0469V0.765625H16.6211ZM34.2227 5.65234C35.4336 5.65234 36.4766 5.88672 37.3516 6.35547C38.2266 6.81641 38.9023 7.48828 39.3789 8.37109C39.8555 9.25391 40.0938 10.332 40.0938 11.6055V13.3398H31.6445C31.6836 14.3477 31.9844 15.1406 32.5469 15.7188C33.1172 16.2891 33.9062 16.5742 34.9141 16.5742C35.75 16.5742 36.5156 16.4883 37.2109 16.3164C37.9062 16.1445 38.6211 15.8867 39.3555 15.543V18.3086C38.707 18.6289 38.0273 18.8633 37.3164 19.0117C36.6133 19.1602 35.7578 19.2344 34.75 19.2344C33.4375 19.2344 32.2734 18.9922 31.2578 18.5078C30.25 18.0234 29.457 17.2852 28.8789 16.293C28.3086 15.3008 28.0234 14.0508 28.0234 12.543C28.0234 11.0117 28.2812 9.73828 28.7969 8.72266C29.3203 7.69922 30.0469 6.93359 30.9766 6.42578C31.9062 5.91016 32.9883 5.65234 34.2227 5.65234ZM34.2461 8.19531C33.5508 8.19531 32.9727 8.41797 32.5117 8.86328C32.0586 9.30859 31.7969 10.0078 31.7266 10.9609H36.7422C36.7344 10.4297 36.6367 9.95703 36.4492 9.54297C36.2695 9.12891 35.9961 8.80078 35.6289 8.55859C35.2695 8.31641 34.8086 8.19531 34.2461 8.19531ZM58.3867 5.65234C59.8711 5.65234 60.9922 6.03516 61.75 6.80078C62.5156 7.55859 62.8984 8.77734 62.8984 10.457V19H59.3125V11.3477C59.3125 10.4102 59.1523 9.70312 58.832 9.22656C58.5117 8.75 58.0156 8.51172 57.3438 8.51172C56.3984 8.51172 55.7266 8.85156 55.3281 9.53125C54.9297 10.2031 54.7305 11.168 54.7305 12.4258V19H51.1562V11.3477C51.1562 10.7227 51.0859 10.1992 50.9453 9.77734C50.8047 9.35547 50.5898 9.03906 50.3008 8.82812C50.0117 8.61719 49.6406 8.51172 49.1875 8.51172C48.5234 8.51172 48 8.67969 47.6172 9.01562C47.2422 9.34375 46.9727 9.83203 46.8086 10.4805C46.6523 11.1211 46.5742 11.9062 46.5742 12.8359V19H43V5.89844H45.7305L46.2109 7.57422H46.4102C46.6758 7.12109 47.0078 6.75391 47.4062 6.47266C47.8125 6.19141 48.2578 5.98438 48.7422 5.85156C49.2266 5.71875 49.7188 5.65234 50.2188 5.65234C51.1797 5.65234 51.9922 5.80859 52.6562 6.12109C53.3281 6.43359 53.8438 6.91797 54.2031 7.57422H54.5195C54.9102 6.90234 55.4609 6.41406 56.1719 6.10938C56.8906 5.80469 57.6289 5.65234 58.3867 5.65234ZM74.0195 5.65234C75.418 5.65234 76.543 6.03516 77.3945 6.80078C78.2461 7.55859 78.6719 8.77734 78.6719 10.457V19H75.0977V11.3477C75.0977 10.4102 74.9258 9.70312 74.582 9.22656C74.2461 8.75 73.7148 8.51172 72.9883 8.51172C71.8945 8.51172 71.1484 8.88281 70.75 9.625C70.3516 10.3672 70.1523 11.4375 70.1523 12.8359V19H66.5781V5.89844H69.3086L69.7891 7.57422H69.9883C70.2695 7.12109 70.6172 6.75391 71.0312 6.47266C71.4531 6.19141 71.918 5.98438 72.4258 5.85156C72.9414 5.71875 73.4727 5.65234 74.0195 5.65234ZM85.9258 5.89844V19H82.3516V5.89844H85.9258ZM84.1445 0.765625C84.6758 0.765625 85.1328 0.890625 85.5156 1.14062C85.8984 1.38281 86.0898 1.83984 86.0898 2.51172C86.0898 3.17578 85.8984 3.63672 85.5156 3.89453C85.1328 4.14453 84.6758 4.26953 84.1445 4.26953C83.6055 4.26953 83.1445 4.14453 82.7617 3.89453C82.3867 3.63672 82.1992 3.17578 82.1992 2.51172C82.1992 1.83984 82.3867 1.38281 82.7617 1.14062C83.1445 0.890625 83.6055 0.765625 84.1445 0.765625Z" fill="#070707"/>
<path d="M91.1965 19.216C90.4285 19.216 89.7805 18.96 89.2525 18.448C88.7245 17.936 88.4605 17.288 88.4605 16.504C88.4605 15.704 88.7165 15.056 89.2285 14.56C89.7565 14.064 90.4125 13.816 91.1965 13.816C91.9965 13.816 92.6525 14.064 93.1645 14.56C93.6765 15.056 93.9325 15.704 93.9325 16.504C93.9325 17.288 93.6685 17.936 93.1405 18.448C92.6285 18.96 91.9805 19.216 91.1965 19.216Z" fill="#FF8E26"/>
</svg>
