<svg width="109" height="93" viewBox="0 0 109 93" fill="none" xmlns="http://www.w3.org/2000/svg">
<path d="M73.9028 93C73.1964 93 72.5342 92.8889 71.9162 92.6666C71.2981 92.4479 70.7242 92.074 70.1944 91.5448L55.096 76.4637C54.1247 75.4936 53.6391 74.2589 53.6391 72.7596C53.6391 71.2603 54.1247 70.0256 55.096 69.0555C56.0672 68.0853 57.3034 67.6003 58.8044 67.6003C60.3054 67.6003 61.5415 68.0853 62.5128 69.0555L73.9028 80.4324L100.126 54.239C101.098 53.2688 102.334 52.7838 103.835 52.7838C105.336 52.7838 106.572 53.2688 107.543 54.239C108.514 55.2091 109 56.4438 109 57.9431C109 59.4424 108.514 60.6771 107.543 61.6472L77.6112 91.5448C77.0814 92.074 76.5075 92.4479 75.8894 92.6666C75.2714 92.8889 74.6092 93 73.9028 93ZM50.1956 45.9047C51.0786 46.4339 52.0057 46.6984 52.9769 46.6984C53.9482 46.6984 54.8753 46.4339 55.7582 45.9047L92.842 22.7539C93.5484 22.3129 94.1453 21.6286 94.6327 20.7008C95.1165 19.7765 95.3584 18.8734 95.3584 17.9915C95.3584 16.3158 94.6521 15.104 93.2394 14.3561C91.8267 13.6047 90.4139 13.67 89.0012 14.5519L52.9769 37.0413L16.9526 14.5519C15.5399 13.67 14.1272 13.6259 12.7145 14.4196C11.3017 15.2134 10.5954 16.4481 10.5954 18.1238C10.5954 19.0057 10.8391 19.8876 11.3265 20.7696C11.8103 21.6515 12.4054 22.3129 13.1118 22.7539L50.1956 45.9047ZM10.5954 84.6657C7.68165 84.6657 5.18821 83.6303 3.11504 81.5595C1.03835 79.4852 0 76.9929 0 74.0825V10.5832C0 7.67283 1.03835 5.18225 3.11504 3.11146C5.18821 1.03715 7.68165 0 10.5954 0H95.3584C98.2722 0 100.767 1.03715 102.844 3.11146C104.917 5.18225 105.954 7.67283 105.954 10.5832V39.8193C104.453 39.5548 102.864 39.6641 101.186 40.1474C99.5083 40.6343 98.0073 41.5391 96.6829 42.862L74.0352 65.4836L66.3536 57.8108C64.2345 55.6942 61.7181 54.6358 58.8044 54.6358C55.8906 54.6358 53.3742 55.6942 51.2552 57.8108L43.9708 65.0868C41.8518 67.2034 40.7922 69.7169 40.7922 72.6273C40.7922 75.5377 41.8518 78.0512 43.9708 80.1678L48.4739 84.6657H10.5954Z" fill="#3799F3"/>
</svg>
