<svg width="13" height="12" viewBox="0 0 13 12" fill="none" xmlns="http://www.w3.org/2000/svg">
<path d="M6.56032 0.828358C6.47078 0.779516 6.36255 0.779516 6.27301 0.828358L0.483044 3.98652C0.274543 4.10025 0.274596 4.39965 0.483136 4.51331L2.1769 5.43641C2.27333 5.48896 2.33333 5.59001 2.33333 5.69983V8.84362C2.33333 8.95338 2.39328 9.05438 2.48963 9.10696L6.27296 11.1716C6.36253 11.2205 6.4708 11.2205 6.56038 11.1716L10.3437 9.10696C10.4401 9.05438 10.5 8.95338 10.5 8.84362V5.69983C10.5 5.59001 10.56 5.48896 10.6564 5.43641L11.2231 5.12758C11.423 5.01862 11.6667 5.16332 11.6667 5.39099V8.61667C11.6667 8.78235 11.801 8.91667 11.9667 8.91667H12.5333C12.699 8.91667 12.8333 8.78235 12.8333 8.61667V4.42809C12.8333 4.31831 12.7734 4.21729 12.677 4.16472L6.56032 0.828358ZM9.91216 3.98663C10.1206 4.10034 10.1206 4.39966 9.91216 4.51337L6.56032 6.34164C6.47078 6.39048 6.36255 6.39048 6.27301 6.34164L2.92118 4.51337C2.71272 4.39966 2.71272 4.10034 2.92118 3.98663L6.27301 2.15836C6.36256 2.10952 6.47078 2.10952 6.56032 2.15836L9.91216 3.98663ZM9.33333 8.15502C9.33333 8.26492 9.27324 8.36603 9.17669 8.41855L6.56003 9.84201C6.47064 9.89064 6.3627 9.89064 6.27331 9.84201L3.65664 8.41855C3.5601 8.36603 3.5 8.26492 3.5 8.15502V6.6631C3.5 6.43533 3.74385 6.29064 3.94377 6.3998L6.2729 7.6715C6.3625 7.72043 6.47083 7.72043 6.56043 7.6715L8.88957 6.3998C9.08948 6.29064 9.33333 6.43533 9.33333 6.6631V8.15502Z" fill="#404040"/>
</svg>
